<?xml version="1.0" encoding="UTF-8"?>
<svg xmlns="http://www.w3.org/2000/svg" xmlns:xlink="http://www.w3.org/1999/xlink" viewBox="0 0 595.28 595.28">
  <defs>
    
    <linearGradient id="Dégradé_sans_nom_477" data-name="Dégradé sans nom 477" x1="39.83" y1="148.79" x2="555.44" y2="446.48" gradientUnits="userSpaceOnUse">
      <stop offset=".04" stop-color="#ffda00"></stop>
      <stop offset=".06" stop-color="#ffd401"></stop>
      <stop offset=".25" stop-color="#ff9413"></stop>
      <stop offset=".44" stop-color="#ff5f22"></stop>
      <stop offset=".61" stop-color="#ff362d"></stop>
      <stop offset=".77" stop-color="#ff1836"></stop>
      <stop offset=".9" stop-color="#ff063b"></stop>
      <stop offset="1" stop-color="#ff003d"></stop>
    </linearGradient>
    <filter id="drop-shadow-1" x="59.55" y="178.59" width="483.12" height="246.72" filterUnits="userSpaceOnUse">
      <feOffset dx="2.83" dy="5.67"></feOffset>
      <feGaussianBlur result="blur" stdDeviation="5.67"></feGaussianBlur>
      <feFlood flood-color="#000" flood-opacity=".35"></feFlood>
      <feComposite in2="blur" operator="in"></feComposite>
      <feComposite in="SourceGraphic"></feComposite>
    </filter>
    <linearGradient id="Dégradé_sans_nom_5" data-name="Dégradé sans nom 5" x1="297.88" y1="296.42" x2="361.13" y2="386.31" gradientUnits="userSpaceOnUse">
      <stop offset=".09" stop-color="#ff003d"></stop>
      <stop offset=".94" stop-color="#ffda00"></stop>
    </linearGradient>
  </defs>
  <g class="cls-6">
    <g id="Calque_1" data-name="Calque 1">
      <circle class="cls-5" cx="297.64" cy="297.64" r="297.64"></circle>
      <g>
        <g class="cls-1">
          <path class="cls-7" d="M245.18,254.89c.26-20.05-14.29-36.71-35.79-36.71-20.32,0-35.79,15.47-35.79,36.05s15.86,36.06,36.84,36.06c11.93,0,22.15-4.99,28.72-13.11,1.96-2.35,1.04-5.24-1.97-6.03l-7.6-2.23c-.39-.13-.79-.13-1.31-.13-1.31,0-2.89.52-4.06,1.57-3.54,3.02-8.39,4.86-13.77,4.86-9.3,0-16.8-5.68-19.6-13.9-.17-.51.2-1.05.74-1.05h47.7c3.27,0,5.9-2.36,5.9-5.38ZM191.72,247.55c-.54,0-.92-.54-.74-1.05,2.78-7.94,9.98-13.23,18.15-13.23,8.66,0,15.88,5.29,18.78,13.22.19.52-.19,1.06-.73,1.06h-35.45Z"></path>
          <path class="cls-7" d="M317.41,266.3l-6.42-1.97c-.52-.13-1.05-.26-1.71-.26-2.09,0-4.19,1.18-5.9,3.28-3.4,4.06-8.65,6.55-14.55,6.55-10.75,0-19.14-8.52-19.14-19.67s8.38-19.66,19.14-19.66c5.9,0,11.15,2.49,14.55,6.55,1.71,2.1,3.81,3.28,5.9,3.28.66,0,1.18-.13,1.71-.26l6.42-1.97c3.15-.92,4.33-3.8,2.89-6.42-5.35-9.15-14.5-15.45-25.51-17.12-24.07-3.67-45.16,17.35-41.58,41.43,2.62,17.61,17.04,30.23,35.62,30.23,8.52,0,16.22-2.66,22.34-7.28,0,0,0,0,.01-.01,1.41-1.06,2.74-2.24,3.97-3.51,1.97-2.02,3.7-4.29,5.14-6.77,1.44-2.62.26-5.5-2.89-6.42Z"></path>
          <path class="cls-7" d="M370.11,218.19c-10.07,0-16.24,4.59-19.74,8.56-.47.54-1.36.19-1.36-.53v-30.84c0-3.01-2.35-5.37-5.5-5.37h-5.5c-3.02,0-5.38,2.36-5.38,5.37v79.53c0,1.22.69,2.35,1.8,2.86,1.4.64,2.71,1.44,3.92,2.37.95.74,2.21.91,3.36.55,2.12-.67,4.29-1.14,6.48-1.39.28-.04.55-.07.84-.09v-29.81c0-8.92,6.95-15.6,16.13-15.6s16.13,6.68,16.13,15.6v33.56c0,3.01,2.23,5.37,5.37,5.37h5.5c3.15,0,5.38-2.36,5.38-5.37v-38.15c0-15.21-11.54-26.62-27.4-26.62Z"></path>
          <path class="cls-7" d="M266.03,331.98c-.51-1.23-1.08-2.42-1.71-3.56-6.44-11.83-18.86-19.17-34.94-19.17-26.64,0-50.22,20.02-54.97,46.66-4.75,26.64,11.88,46.66,38.51,46.66,17.65,0,34.1-8.82,44.62-22.74,2.54-3.39,1.52-7.12-2.21-8.31l-7.77-2.54s-.04-.01-.06-.02c-.67-.17-1.34-.34-2.01-.34-2.88,0-6.09,1.52-8.46,4.22-.02.02-.03.03-.05.05-5.6,5.24-12.71,8.46-20.34,8.46-14.08,0-22.73-11.03-20.36-25.45,2.72-14.42,15.27-25.45,29.18-25.45,7.64,0,13.92,3.22,17.31,8.48,1.7,2.72,4.41,4.24,7.13,4.24.68,0,1.52-.17,2.2-.34l8.2-2.41.45-.13c4.24-1.19,6.62-4.92,5.26-8.32Z"></path>
          <path class="cls-7" d="M492.87,309.25c-15.7,0-25.49,8.31-29.96,13.38-.36.4-1,.34-1.26-.13-4.44-8.08-13.35-13.25-24.76-13.25s-20.26,5.44-25.33,10.22c-.56.53-1.46.03-1.3-.72h0c.85-3.9-1.7-6.95-5.77-6.95h-7.13c-.21,0-.42,0-.63.03l9.64,12.28c2.62,3.35,3.7,7.53,3.68,11.44,0,.7.84,1.05,1.33.56,4.07-4.11,9.6-6.67,15.51-6.67,10.52,0,16.96,8.14,15.1,18.66l-7.98,44.96c-.68,3.9,1.87,6.95,5.77,6.95h7.12c4.08,0,7.63-3.05,8.31-6.95l7.97-45.95s0-.04.01-.06c2.39-10,11.54-17.62,21.71-17.62s16.97,8.14,15.11,18.66l-7.98,44.96c-.68,3.9,1.87,6.95,5.77,6.95h7.12c4.08,0,7.64-3.05,8.32-6.95l8.99-51.07c3.23-18.66-8.99-32.74-29.35-32.74ZM388.78,353.31s-.07-.01-.1-.01c-.95-.16-1.9-.33-2.84-.53-.48-.1-.93.26-.93.76-.05,9.2-2.31,18.24-6.55,26.37-.04.07-.06.14-.07.21l-2.31,12.95c-.68,3.9,1.87,6.95,5.77,6.95h7.13c4.07,0,7.63-3.05,8.31-6.95l7.43-42.81c.12-.7-.68-1.19-1.24-.76-3.57,2.74-8.02,4.02-11.85,4.02-.93,0-1.85-.07-2.74-.2Z"></path>
          <path class="cls-7" d="M421.21,237.46v-3.29c0-2.62,2.13-4.75,4.75-4.75h2.73c.43,0,.78-.35.78-.78v-5.04c0-2.99,2.42-5.41,5.41-5.41h2.95c2.93,0,5.3,2.37,5.3,5.3v5.15c0,.43.35.78.78.78h8.67c2.62,0,4.75,2.13,4.75,4.75v3.29c0,2.2-1.65,3.96-3.96,3.96h-9.46c-.43,0-.78.35-.78.78v23.65c0,4.26,3.46,7.72,7.72,7.72h2.52c2.31,0,3.96,1.76,3.96,3.96v4.39c0,2.62-2.13,4.75-4.75,4.75h-3.62c-11.12,0-19.49-7.82-19.49-18.06v-26.41c0-.43-.35-.78-.78-.78h-3.51c-2.31,0-3.96-1.76-3.96-3.96Z"></path>
          <path class="cls-7" d="M463.82,258.05c0-17.29,11.78-30.28,27.31-30.28,6.94,0,13.21,2.64,17.95,7.05v-.88c0-2.53,1.87-4.51,4.51-4.51h4.62c2.64,0,4.51,1.98,4.51,4.51v48.23c0,2.53-1.87,4.51-4.51,4.51h-4.62c-2.64,0-4.51-1.98-4.51-4.51v-.88c-4.73,4.4-11.01,7.05-17.95,7.05-15.52,0-27.31-12.99-27.31-30.28ZM478.03,258.05c0,9.36,6.83,16.52,15.42,16.52s15.41-7.16,15.41-16.52-6.72-16.52-15.41-16.52-15.42,7.16-15.42,16.52Z"></path>
          <path class="cls-7" d="M171.67,234.57l-8.09,1.55c-.32.06-.65-.09-.82-.37-5.37-8.93-12.94-15.31-20.92-16.97-10.96-2.28-20.45,2.26-28.94,7.92-.3.2-.69.17-.96-.08-7.9-7.25-18.7-10.48-28.04-2.67-4.1,3.43-7.55,8.89-9.72,13.96-1.04,2.41.18,5.2,2.64,6.11l4.82,1.79c2.27.84,4.81-.22,5.8-2.42l2.14-4.74c.15-.46,1.49-4.18,5.26-5.37.58-.18,4.08-1.28,6.55,1.01,1.9,1.75,1.88,4.28,1.86,4.83,0,.03,0,.06,0,.09l-12.85,78.23c-.36,2.19,1.18,4.25,3.39,4.5l6.24.73c2.06.24,3.96-1.18,4.3-3.23l12.35-73.69c.61-3.59,2.31-6.98,5.07-9.35,5.17-4.45,11.65-6.03,17-4.11,4.29,1.53,6.8,4.94,8,6.95.24.4.08.91-.34,1.11-17.03,8.04-27.5,27.09-20.19,43.85,3.97,9.08,17.3,7.76,24.14,2.62,10.72-8.04,16.11-20.53,14.92-34.47-.03-.37.2-.72.56-.82l2.2-.62c.31-.09.53-.36.56-.68.46-5.24,1.81-10.14,3.92-14.56.27-.58-.23-1.22-.86-1.1ZM145.07,273.85c-1.63,1.64-3.38,2.75-4.96,3.5-1.45.69-3.19-.26-3.38-1.87-.2-1.71-.19-3.75.32-5.96,1.8-7.79,8.54-11.82,11.56-13.28.69-.34,1.5.11,1.58.88.35,3.3.46,11.07-5.13,16.72Z"></path>
          <path class="cls-8" d="M394.75,216.81c-.75.15-1.27-.74-.74-1.3,3.46-3.67,11.72-11.19,19.7-9.13,10.66,2.75,8.19,12.58,3.46,14.13-7,2.29-10.17-6.2-22.42-3.7Z"></path>
          <path class="cls-8" d="M386.78,210.77c-.29.71.48,1.38,1.13.98,3.69-2.31,10.7-7.59,10.4-14.19-.41-9.11-8.8-8.79-10.86-5.22-3.01,5.22,3.13,9.19-.66,18.43Z"></path>
        </g>
        <g>
          <image class="cls-3" width="810" height="759" transform="translate(251.07 276.75) scale(.24)"></image>
          <g>
            <image class="cls-4" width="687" height="639" transform="translate(257.79 279.87) scale(.24)"></image>
            <path class="cls-7" d="M395.55,329.89l-22.11-28.16c-.69-.92-11.42-14.69-26.97-12.87-6.27.73-10.86,3.71-13.36,5.67-.48-4.47-3.86-8.07-8.15-8.76-4.68-.76-8.94,2.18-10.31,5.48-1.25,2.99.03,6.16,2.58,12.49,1.05,2.59,2.11,4.68,2.92,6.14-3.87-1.07-7.85-1.62-11.86-1.62-9.51,0-18.61,3.14-25.67,8.84-10,8.09-15.74,19.64-16.17,32.56-.43,13.25,4.95,26.02,14.75,35.05,9.19,8.46,19.33,13.81,30.93,16.33l.34.22c1.79,1.21,3.81,2.56,6.01,3.26.61.21,1.25.3,1.91.3,2.03,0,4.17-.95,6.41-2.86,9.6-1.45,18.33-5.11,25.96-10.89,16.99-12.87,23.33-34.88,16.41-54.37,5.84,3.08,11.97,5.16,18.28,6.18.39.06.79.09,1.22.09,2.76,0,6.36-1.4,7.76-4.47.91-1.98,1.12-6.06-.86-8.6ZM363.53,311.97c4.64,5.34,9.28,10.68,13.92,16.01-5.63-1.81-15.04-5.76-23.38-14.49-3.39-3.55-5.87-7.12-7.68-10.24,4.86.06,9.62,1.79,13.53,5.01,1.3,1.07,2.51,2.32,3.6,3.72ZM324.74,329.98c.7.64,3.97,3.69,5.77,9.02,4.23,12.5-4.6,22.83.4,27.77,1.52,1.5,3.82,2.01,5.56,1.69,6.59-1.21,10.33-15.26,8.92-26.22-.76-5.97-2.99-10.54-4.61-13.31,5.2,1.84,8.07,4.56,9.62,6.43,9.71,11.71,3.5,33.25-6.12,41.41-5.68,4.81-11.68,7.57-18.88,8.7-1.5.24-3.17.72-5.07,1.49-2.21-1.13-4.29-1.91-6.33-2.38-8.96-2.09-16.63-6.6-23.45-13.8-5.53-5.83-8.33-13.78-7.69-21.86.61-7.81,4.29-14.68,10.37-19.36,4.23-3.25,9.66-5.04,15.27-5.04,2.38,0,10.12-.09,16.23,5.44Z"></path>
          </g>
        </g>
        <path class="cls-2" d="M400.23,331.32l-22.31-28.42c-.7-.93-11.52-14.82-27.21-12.99-6.33.74-10.96,3.74-13.49,5.72-.48-4.52-3.89-8.14-8.23-8.84-4.73-.76-9.02,2.2-10.41,5.53-1.26,3.02.03,6.22,2.61,12.61,1.06,2.62,2.13,4.72,2.94,6.19-3.91-1.08-7.92-1.64-11.97-1.64-9.59,0-18.78,3.17-25.91,8.92-10.09,8.16-15.88,19.82-16.31,32.85-.44,13.37,4.99,26.25,14.89,35.36,9.28,8.54,19.5,13.94,31.21,16.48l.35.23c1.8,1.22,3.85,2.59,6.06,3.29.62.21,1.26.3,1.92.3,2.04,0,4.21-.96,6.47-2.89,9.68-1.46,18.49-5.16,26.19-10.99,17.14-12.99,23.55-35.2,16.55-54.87,5.89,3.11,12.07,5.2,18.45,6.24.39.06.8.09,1.23.09,2.78,0,6.42-1.41,7.83-4.51.92-2,1.13-6.12-.87-8.68ZM367.92,313.24c4.68,5.39,9.36,10.77,14.04,16.16-5.68-1.83-15.18-5.82-23.59-14.63-3.42-3.58-5.92-7.18-7.75-10.34,4.9.06,9.71,1.8,13.66,5.05,1.32,1.08,2.54,2.34,3.63,3.75ZM328.78,331.41c.71.64,4.01,3.72,5.82,9.1,4.27,12.62-4.64,23.04.41,28.03,1.54,1.52,3.86,2.03,5.61,1.71,6.65-1.22,10.42-15.4,9-26.45-.77-6.02-3.01-10.64-4.66-13.43,5.24,1.85,8.14,4.6,9.71,6.49,9.79,11.82,3.53,33.55-6.18,41.78-5.73,4.86-11.79,7.64-19.05,8.78-1.52.24-3.2.72-5.11,1.5-2.23-1.14-4.33-1.92-6.39-2.41-9.04-2.1-16.78-6.66-23.67-13.92-5.58-5.88-8.4-13.91-7.76-22.06.62-7.88,4.33-14.81,10.46-19.53,4.27-3.28,9.74-5.08,15.41-5.08,2.4,0,10.21-.09,16.37,5.49Z"></path>
      </g>
    </g>
  </g>
</svg>